<svg width="20" height="20" viewBox="0 0 20 20" fill="none" xmlns="http://www.w3.org/2000/svg">
<circle cx="10" cy="10" r="10" fill="white"/>
<path fill-rule="evenodd" clip-rule="evenodd" d="M6.91892 10C6.91892 8.29836 8.29836 6.91892 10 6.91892C11.7016 6.91892 13.0811 8.29836 13.0811 10C13.0811 11.7016 11.7016 13.0811 10 13.0811C8.29836 13.0811 6.91892 11.7016 6.91892 10ZM10 12C8.89542 12 8 11.1046 8 10C8 8.89543 8.89542 8 10 8C11.1046 8 12 8.89543 12 10C12 11.1046 11.1046 12 10 12Z" fill="#273134"/>
<path d="M13.2028 7.51718C13.6005 7.51718 13.9228 7.19484 13.9228 6.79719C13.9228 6.39954 13.6005 6.07718 13.2028 6.07718C12.8052 6.07718 12.4828 6.39954 12.4828 6.79719C12.4828 7.19484 12.8052 7.51718 13.2028 7.51718Z" fill="#273134"/>
<path fill-rule="evenodd" clip-rule="evenodd" d="M10 4C8.3705 4 8.16617 4.00691 7.52621 4.03611C6.88758 4.06523 6.45142 4.16667 6.06977 4.315C5.67522 4.46831 5.34061 4.67347 5.00703 5.00703C4.67347 5.34061 4.46831 5.67522 4.315 6.06977C4.16667 6.45142 4.06523 6.88758 4.03611 7.52621C4.00691 8.16617 4 8.3705 4 10C4 11.6295 4.00691 11.8338 4.03611 12.4738C4.06523 13.1124 4.16667 13.5486 4.315 13.9302C4.46831 14.3248 4.67347 14.6594 5.00703 14.993C5.34061 15.3265 5.67522 15.5317 6.06977 15.685C6.45142 15.8333 6.88758 15.9348 7.52621 15.9639C8.16617 15.9931 8.3705 16 10 16C11.6295 16 11.8338 15.9931 12.4738 15.9639C13.1124 15.9348 13.5486 15.8333 13.9302 15.685C14.3248 15.5317 14.6594 15.3265 14.993 14.993C15.3265 14.6594 15.5317 14.3248 15.685 13.9302C15.8333 13.5486 15.9348 13.1124 15.9639 12.4738C15.9931 11.8338 16 11.6295 16 10C16 8.3705 15.9931 8.16617 15.9639 7.52621C15.9348 6.88758 15.8333 6.45142 15.685 6.06977C15.5317 5.67522 15.3265 5.34061 14.993 5.00703C14.6594 4.67347 14.3248 4.46831 13.9302 4.315C13.5486 4.16667 13.1124 4.06523 12.4738 4.03611C11.8338 4.00691 11.6295 4 10 4ZM10 5.08108C11.6021 5.08108 11.7918 5.0872 12.4245 5.11607C13.0095 5.14274 13.3272 5.24049 13.5386 5.32266C13.8187 5.4315 14.0186 5.56152 14.2285 5.77149C14.4385 5.98143 14.5685 6.18131 14.6773 6.46137C14.7595 6.6728 14.8573 6.99049 14.8839 7.57549C14.9128 8.20816 14.9189 8.39794 14.9189 10C14.9189 11.6021 14.9128 11.7918 14.8839 12.4245C14.8573 13.0095 14.7595 13.3272 14.6773 13.5386C14.5685 13.8187 14.4385 14.0186 14.2285 14.2285C14.0186 14.4385 13.8187 14.5685 13.5386 14.6773C13.3272 14.7595 13.0095 14.8573 12.4245 14.8839C11.7919 14.9128 11.6022 14.9189 10 14.9189C8.39782 14.9189 8.20809 14.9128 7.57549 14.8839C6.99049 14.8573 6.6728 14.7595 6.46137 14.6773C6.18131 14.5685 5.98144 14.4385 5.77149 14.2285C5.56154 14.0186 5.4315 13.8187 5.32266 13.5386C5.24049 13.3272 5.14274 13.0095 5.11607 12.4245C5.0872 11.7918 5.08108 11.6021 5.08108 10C5.08108 8.39794 5.0872 8.20816 5.11607 7.57549C5.14274 6.99049 5.24049 6.6728 5.32266 6.46137C5.4315 6.18131 5.56152 5.98143 5.77149 5.77149C5.98144 5.56152 6.18131 5.4315 6.46137 5.32266C6.6728 5.24049 6.99049 5.14274 7.57549 5.11607C8.20816 5.0872 8.39794 5.08108 10 5.08108Z" fill="#273134"/>
</svg>
