<svg width="20" height="20" viewBox="0 0 20 20" fill="none" xmlns="http://www.w3.org/2000/svg">
<circle cx="10" cy="10" r="10" fill="white"/>
<rect width="12" height="12" transform="translate(4 4)" fill="white"/>
<path d="M14.2246 14.2248H12.4465V11.4402C12.4465 10.7762 12.4347 9.92148 11.5218 9.92148C10.5957 9.92148 10.454 10.6449 10.454 11.3919V14.2246H8.67602V8.49847H10.3829V9.281H10.4068C10.7549 8.6859 11.402 8.33047 12.0909 8.35604C13.893 8.35604 14.2253 9.54141 14.2253 11.0835L14.2246 14.2248ZM6.66982 7.71575C6.09996 7.71585 5.63792 7.25397 5.63782 6.6841C5.63772 6.11424 6.09959 5.65219 6.66944 5.65209C7.2393 5.65198 7.70134 6.11387 7.70144 6.68373C7.70149 6.95739 7.59283 7.21986 7.39936 7.4134C7.20589 7.60694 6.94347 7.7157 6.66982 7.71575ZM7.55883 14.2248H5.77895V8.49847H7.55883V14.2248ZM15.111 4.00089H4.88549C4.40222 3.99544 4.0059 4.38257 4 4.86585V15.134C4.0057 15.6175 4.40198 16.005 4.88549 15.9999H15.111C15.5955 16.0059 15.9933 15.6185 16 15.134V4.86511C15.9931 4.38087 15.5952 3.99377 15.111 4.00008" fill="#273134"/>
</svg>
