<svg width="1184" height="117" viewBox="0 0 1184 117" fill="none" xmlns="http://www.w3.org/2000/svg">
<path d="M45.6 2.19999C57.44 2.19999 67.7867 4.59999 76.64 9.4C85.6 14.0933 92.48 20.7067 97.28 29.24C102.08 37.7733 104.48 47.5333 104.48 58.52C104.48 69.4 102.027 79.1067 97.12 87.64C92.32 96.1733 85.44 102.893 76.48 107.8C67.6267 112.6 57.3333 115 45.6 115H0.96V2.19999H45.6ZM43.2 87.32C52.3733 87.32 59.5733 84.8133 64.8 79.8C70.0267 74.7867 72.64 67.6933 72.64 58.52C72.64 49.24 70.0267 42.0933 64.8 37.08C59.5733 31.96 52.3733 29.4 43.2 29.4H32.32V87.32H43.2Z" fill="#EF493F"/>
<path d="M138.776 27.32V45.72H174.776V69.56H138.776V89.88H179.576V115H107.416V2.19999H179.576V27.32H138.776Z" fill="#5A85F1"/>
<path d="M342.753 2.19999L315.073 115H276.513L260.993 45.88L245.153 115H206.593L179.233 2.19999H213.153L226.273 79.32L244.033 2.19999H278.433L295.713 78.68L308.833 2.19999H342.753Z" fill="#5BAD53"/>
<path d="M376.22 2.19999V115H344.86V2.19999H376.22Z" fill="#FE794F"/>
<path d="M417.889 58.36C417.889 47.2667 420.182 37.4 424.769 28.76C429.462 20.0133 436.075 13.24 444.609 8.44C453.142 3.53333 462.955 1.08 474.049 1.08C488.129 1.08 499.969 4.86666 509.569 12.44C519.169 19.9067 525.355 30.0933 528.129 43H494.369C492.342 38.7333 489.515 35.48 485.889 33.24C482.369 31 478.262 29.88 473.569 29.88C466.315 29.88 460.502 32.4933 456.129 37.72C451.862 42.84 449.729 49.72 449.729 58.36C449.729 67.1067 451.862 74.0933 456.129 79.32C460.502 84.44 466.315 87 473.569 87C478.262 87 482.369 85.88 485.889 83.64C489.515 81.4 492.342 78.1467 494.369 73.88H528.129C525.355 86.7867 519.169 97.0267 509.569 104.6C499.969 112.067 488.129 115.8 474.049 115.8C462.955 115.8 453.142 113.4 444.609 108.6C436.075 103.693 429.462 96.92 424.769 88.28C420.182 79.5333 417.889 69.56 417.889 58.36ZM563.139 27.32V45.72H599.139V69.56H563.139V89.88H603.939V115H531.779V2.19999H603.939V27.32H563.139ZM665.355 115L642.955 73.4H639.595V115H608.235V2.19999H657.675C666.742 2.19999 674.422 3.79999 680.715 7C687.008 10.0933 691.755 14.4133 694.955 19.96C698.155 25.4 699.755 31.5333 699.755 38.36C699.755 46.04 697.622 52.8133 693.355 58.68C689.195 64.44 683.062 68.5467 674.955 71L700.395 115H665.355ZM639.595 51.96H655.115C659.382 51.96 662.582 50.9467 664.715 48.92C666.848 46.8933 667.915 43.96 667.915 40.12C667.915 36.4933 666.795 33.6667 664.555 31.64C662.422 29.5067 659.275 28.44 655.115 28.44H639.595V51.96ZM774.176 96.6H734.176L728.096 115H695.136L736.256 2.19999H772.416L813.376 115H780.256L774.176 96.6ZM766.336 72.6L754.176 36.12L742.176 72.6H766.336ZM944.078 2.19999V115H912.718V52.76L891.438 115H865.198L843.758 52.28V115H812.398V2.19999H850.318L878.638 75.48L906.318 2.19999H944.078ZM982.089 2.19999V115H950.729V2.19999H982.089ZM984.907 58.36C984.907 47.2667 987.201 37.4 991.787 28.76C996.481 20.0133 1003.09 13.24 1011.63 8.44C1020.16 3.53333 1029.97 1.08 1041.07 1.08C1055.15 1.08 1066.99 4.86666 1076.59 12.44C1086.19 19.9067 1092.37 30.0933 1095.15 43H1061.39C1059.36 38.7333 1056.53 35.48 1052.91 33.24C1049.39 31 1045.28 29.88 1040.59 29.88C1033.33 29.88 1027.52 32.4933 1023.15 37.72C1018.88 42.84 1016.75 49.72 1016.75 58.36C1016.75 67.1067 1018.88 74.0933 1023.15 79.32C1027.52 84.44 1033.33 87 1040.59 87C1045.28 87 1049.39 85.88 1052.91 83.64C1056.53 81.4 1059.36 78.1467 1061.39 73.88H1095.15C1092.37 86.7867 1086.19 97.0267 1076.59 104.6C1066.99 112.067 1055.15 115.8 1041.07 115.8C1029.97 115.8 1020.16 113.4 1011.63 108.6C1003.09 103.693 996.481 96.92 991.787 88.28C987.201 79.5333 984.907 69.56 984.907 58.36ZM1141.36 116.12C1128.24 116.12 1117.46 113.027 1109.04 106.84C1100.61 100.547 1096.08 91.5867 1095.44 79.96H1128.88C1129.2 83.9067 1130.37 86.7867 1132.4 88.6C1134.42 90.4133 1137.04 91.32 1140.24 91.32C1143.12 91.32 1145.46 90.6267 1147.28 89.24C1149.2 87.7467 1150.16 85.72 1150.16 83.16C1150.16 79.8533 1148.61 77.2933 1145.52 75.48C1142.42 73.6667 1137.41 71.64 1130.48 69.4C1123.12 66.9467 1117.14 64.6 1112.56 62.36C1108.08 60.0133 1104.13 56.6533 1100.72 52.28C1097.41 47.8 1095.76 41.9867 1095.76 34.84C1095.76 27.5867 1097.57 21.4 1101.2 16.28C1104.82 11.0533 1109.84 7.10666 1116.24 4.43999C1122.64 1.77333 1129.89 0.439997 1138 0.439997C1151.12 0.439997 1161.57 3.53333 1169.36 9.71999C1177.25 15.8 1181.46 24.3867 1182 35.48H1147.92C1147.81 32.0667 1146.74 29.5067 1144.72 27.8C1142.8 26.0933 1140.29 25.24 1137.2 25.24C1134.85 25.24 1132.93 25.9333 1131.44 27.32C1129.94 28.7067 1129.2 30.68 1129.2 33.24C1129.2 35.3733 1130 37.24 1131.6 38.84C1133.3 40.3333 1135.38 41.6667 1137.84 42.84C1140.29 43.9067 1143.92 45.2933 1148.72 47C1155.86 49.4533 1161.73 51.9067 1166.32 54.36C1171.01 56.7067 1175.01 60.0667 1178.32 64.44C1181.73 68.7067 1183.44 74.1467 1183.44 80.76C1183.44 87.48 1181.73 93.5067 1178.32 98.84C1175.01 104.173 1170.16 108.387 1163.76 111.48C1157.46 114.573 1150 116.12 1141.36 116.12Z" fill="#47291C"/>
</svg>
