<svg width="17" height="17" viewBox="0 0 17 17" fill="none" xmlns="http://www.w3.org/2000/svg">
<path d="M5.99059 11.146V11.1017C5.99068 10.4994 5.99075 10.0148 5.37991 10.0148C4.76158 10.0148 4.71834 10.6222 4.71834 11.2347C4.71834 11.8473 4.76158 12.2329 5.37991 12.2329C5.99075 12.2329 5.99068 11.7483 5.99059 11.146Z" fill="white"/>
<path d="M10.6857 11.146V11.1017C10.6858 10.4994 10.6859 10.0148 10.075 10.0148C9.45669 10.0148 9.41344 10.6222 9.41344 11.2347C9.41344 11.8473 9.45669 12.2329 10.075 12.2329C10.6859 12.2329 10.6858 11.7483 10.6857 11.146Z" fill="white"/>
<path fill-rule="evenodd" clip-rule="evenodd" d="M3.50934 7.90121C3.48343 7.1998 3.34477 6.81857 3.20331 6.59532C3.05227 6.35695 2.84253 6.20824 2.51043 6.04844C2.42635 6.00799 2.33109 5.96699 2.22789 5.92256C1.55141 5.63139 0.533421 5.19323 0.0821692 3.79875C-0.0807135 3.2954 0.00423208 2.79874 0.286741 2.39697C0.547584 2.02601 0.939766 1.78435 1.33441 1.63415C2.12703 1.33249 3.17759 1.30162 4.19561 1.57908C5.22804 1.86047 6.28742 2.47517 7.05567 3.5373C7.4536 4.08746 7.76133 4.74091 7.95007 5.50228C8.30011 3.77244 9.16934 2.42875 10.1725 1.50513C10.8843 0.849766 11.6739 0.395991 12.4079 0.168561C13.0972 -0.0450427 13.916 -0.109006 14.5304 0.29896C14.8636 0.520249 15.1464 0.7856 15.3298 1.11889C15.5213 1.46677 15.5735 1.8323 15.5301 2.18791C15.4531 2.81987 15.0607 3.44544 14.7157 3.97794C14.6508 4.07824 14.5841 4.17997 14.5163 4.28343L14.5162 4.28362C13.8584 5.28729 13.0947 6.4526 12.7483 8.03555C13.4112 8.28364 13.8104 8.87612 14.0399 9.45269C14.0533 9.48625 14.0662 9.52019 14.0788 9.55446C14.0886 9.55654 14.0983 9.55882 14.1081 9.56131C15.251 9.85223 16.0835 10.2688 16.5602 10.8426C16.8098 11.1431 16.9636 11.4903 16.9943 11.866C17.0247 12.2373 16.9304 12.5796 16.7773 12.8696C16.481 13.4308 15.9388 13.8543 15.3874 14.1185C14.9722 14.3175 14.4938 14.4545 14.0109 14.4799C13.8519 14.9501 13.6393 15.3896 13.3617 15.7342C13.1013 16.0573 12.7338 16.2723 12.3754 16.4227C12.0069 16.5772 11.5819 16.6906 11.1378 16.7743C10.249 16.9418 9.19973 17.0057 8.188 16.9996C7.17369 16.9935 6.16708 16.9167 5.35642 16.791C4.95255 16.7283 4.58096 16.651 4.27454 16.5583C4.12142 16.5119 3.97132 16.4578 3.83565 16.3932C3.70894 16.333 3.54877 16.2423 3.41349 16.1045C2.42229 15.0942 1.94821 13.3319 1.86597 11.8381C1.82373 11.071 1.87959 10.3024 2.05891 9.65334C2.22897 9.03774 2.55954 8.35827 3.20153 8.03808C3.29703 7.99046 3.3998 7.9448 3.50934 7.90121ZM12.8547 1.64594C13.3955 1.47838 13.6519 1.56351 13.6929 1.59079C13.8975 1.72661 13.9709 1.82461 13.9963 1.87084C14.0137 1.90247 14.0232 1.9326 14.0151 1.99872C13.9893 2.21019 13.8269 2.53225 13.4391 3.13076C13.3758 3.22856 13.3086 3.33063 13.2385 3.43713C12.5863 4.42824 11.6821 5.80216 11.2651 7.67012C10.6013 7.53806 9.94748 7.44497 9.31496 7.38533C9.256 5.18706 10.1555 3.60951 11.1997 2.64806C11.7631 2.12937 12.3586 1.79966 12.8547 1.64594ZM6.63557 7.32483C6.633 6.02134 6.29144 5.09632 5.82394 4.44998C5.292 3.71456 4.55072 3.27596 3.79868 3.07099C3.03223 2.86209 2.31452 2.91181 1.8717 3.08034C1.64864 3.16524 1.55632 3.25607 1.53045 3.29286C1.52922 3.29462 1.528 3.29467 1.52717 3.2947L1.52634 3.29488C1.5256 3.29545 1.52647 3.29813 1.5308 3.31146L1.53287 3.31784C1.75793 4.01334 2.11803 4.17583 2.75821 4.4647C2.88307 4.52104 3.01859 4.58219 3.16584 4.65304C3.60245 4.86312 4.11211 5.16756 4.48828 5.76122C4.77717 6.21713 4.9512 6.78534 5.01377 7.50114C5.50992 7.41546 6.05639 7.35553 6.63557 7.32483ZM14.4208 11.6C14.4184 11.488 14.4139 11.3758 14.4071 11.2638C14.9801 11.4725 15.2665 11.6862 15.3918 11.837C15.4639 11.9238 15.4715 11.9753 15.473 11.9936C15.4748 12.0162 15.4723 12.0631 15.431 12.1414C15.3384 12.3167 15.1012 12.5462 14.7341 12.7221C14.611 12.7811 14.4851 12.8283 14.3607 12.8634C14.4091 12.4448 14.4297 12.0172 14.4208 11.6ZM3.87627 9.42402C4.425 9.15034 5.56848 8.89514 7.09607 8.85241C8.59796 8.81039 10.3892 8.97639 12.1925 9.47615C12.2832 9.5013 12.4577 9.61238 12.624 10.0301C12.7846 10.4336 12.881 10.996 12.8947 11.6334C12.9081 12.264 12.8396 12.9226 12.7034 13.4979C12.5637 14.0887 12.3693 14.5212 12.1787 14.7577C12.1449 14.7997 12.0389 14.8914 11.791 14.9953C11.5533 15.095 11.2394 15.1835 10.8584 15.2553C10.097 15.3988 9.15168 15.4603 8.19711 15.4546C7.24513 15.4488 6.3138 15.3764 5.58768 15.2637C5.22318 15.2072 4.92667 15.143 4.71191 15.078C4.60442 15.0455 4.53066 15.0167 4.485 14.9949C4.47875 14.992 4.47349 14.9893 4.46916 14.9871C3.87898 14.3596 3.46285 13.0729 3.39014 11.7522C3.35433 11.1019 3.40692 10.5115 3.52905 10.0694C3.66043 9.59382 3.8243 9.44993 3.87627 9.42402Z" fill="white"/>
</svg>
