<svg width="80" height="80" viewBox="0 0 128 128" fill="none" xmlns="http://www.w3.org/2000/svg">
<path d="M31.5001 113.78C20 102.199 18.5 70.0885 28.5011 65.1604C38.5022 60.2323 65.1785 57.7314 92.3103 65.1604C104.5 68.498 103.5 101.146 95.0207 111.543C86.5415 121.94 36.7111 119.027 31.5001 113.78Z" stroke="#4A8E5C" stroke-width="11"/>
<path d="M103.32 76.4053C134.722 84.3027 114.624 102.144 101 100.515" stroke="#4A8E5C" stroke-width="11" stroke-linecap="round"/>
<path d="M33.8189 60.9701C33.819 34.1237 14.5049 45.694 8.81885 28.3333C3.81897 13.0677 59.3202 9.89326 56.187 59.2087" stroke="#4A8E5C" stroke-width="11" stroke-linecap="round"/>
<path d="M88.8191 62.5493C93.8191 31.4917 120.187 19.8966 104.687 9.72709C95.241 3.52956 61.5988 20.9167 64.819 59.2086" stroke="#4A8E5C" stroke-width="11" stroke-linecap="round"/>
<path d="M80 82.1961C80 86.5569 80.0551 90.092 75.5995 90.092C71.1439 90.092 70.8323 87.3465 70.8323 82.9857C70.8323 78.6248 71.1439 74.3001 75.5995 74.3001C80.0551 74.3001 80 77.8352 80 82.1961Z" fill="#4A8E5C"/>
<path d="M46.1676 82.196C46.1676 86.5569 46.2227 90.092 41.7672 90.092C37.3116 90.092 37 87.3465 37 82.9856C37 78.6248 37.3116 74.3 41.7672 74.3C46.2227 74.3 46.1676 77.8352 46.1676 82.196Z" fill="#4A8E5C"/>
</svg>
