<svg width="59" height="58" viewBox="0 0 59 58" fill="none" xmlns="http://www.w3.org/2000/svg">
<rect x="0.962158" width="58.0379" height="58" fill="#B2895A"/>
<path d="M23.7465 35.4129V35.3025C23.7467 33.8043 23.7469 32.5989 22.208 32.5989C20.6502 32.5989 20.5413 34.1099 20.5413 35.6336C20.5413 37.1572 20.6502 38.1165 22.208 38.1165C23.7469 38.1165 23.7467 36.9111 23.7465 35.4129Z" fill="#F0EFE9"/>
<path d="M35.5752 35.4129V35.3025C35.5754 33.8043 35.5756 32.5989 34.0366 32.5989C32.4789 32.5989 32.3699 34.1099 32.3699 35.6336C32.3699 37.1573 32.4789 38.1165 34.0366 38.1165C35.5756 38.1165 35.5754 36.9111 35.5752 35.4129Z" fill="#F0EFE9"/>
<path fill-rule="evenodd" clip-rule="evenodd" d="M17.4954 27.3413C17.4301 25.5965 17.0807 24.6482 16.7243 24.0929C16.3438 23.4999 15.8154 23.13 14.9787 22.7325C14.7669 22.6319 14.5269 22.5299 14.2669 22.4194L14.2666 22.4192C12.5623 21.6949 9.99793 20.6051 8.86107 17.1363C8.45071 15.8842 8.66471 14.6488 9.37646 13.6494C10.0336 12.7266 11.0217 12.1254 12.0159 11.7518C14.0128 11.0014 16.6595 10.9246 19.2243 11.6148C21.8254 12.3148 24.4943 13.8439 26.4298 16.486C27.4324 17.8545 28.2076 19.48 28.6832 21.3739C29.565 17.0709 31.7549 13.7284 34.2823 11.4309C36.0756 9.80065 38.0648 8.67187 39.9139 8.10613C41.6507 7.57478 43.7135 7.41567 45.2613 8.4305C46.1008 8.98096 46.8133 9.64103 47.2755 10.4701C47.7579 11.3355 47.8893 12.2447 47.7801 13.1293C47.586 14.7013 46.5974 16.2575 45.7283 17.5821C45.5646 17.8316 45.3967 18.0846 45.2259 18.342L45.2255 18.3425C43.5684 20.8391 41.6444 23.7379 40.7717 27.6755C42.4416 28.2926 43.4473 29.7664 44.0256 31.2007C44.0593 31.2842 44.092 31.3686 44.1237 31.4538C44.1483 31.459 44.1729 31.4647 44.1974 31.4708C47.0769 32.1945 49.1741 33.2307 50.3751 34.6581C51.004 35.4056 51.3914 36.2693 51.4689 37.2038C51.5455 38.1276 51.308 38.9789 50.9222 39.7003C50.1757 41.0964 48.8096 42.1497 47.4204 42.8071C46.3744 43.302 45.1693 43.6429 43.9526 43.7061C43.5521 44.8757 43.0165 45.969 42.317 46.8262C41.661 47.6299 40.7352 48.1648 39.8322 48.5387C38.9039 48.9232 37.833 49.2052 36.7142 49.4133C34.475 49.83 31.8315 49.989 29.2826 49.9738C26.7272 49.9586 24.1912 49.7676 22.1488 49.4548C21.1313 49.299 20.1952 49.1067 19.4232 48.876C19.0374 48.7607 18.6592 48.626 18.3174 48.4655C17.9982 48.3155 17.5947 48.0901 17.2539 47.7471C14.7567 45.234 13.5623 40.8502 13.3551 37.1346C13.2487 35.2262 13.3894 33.3144 13.8412 31.6998C14.2696 30.1685 15.1025 28.4783 16.7199 27.6818C16.9605 27.5633 17.2194 27.4497 17.4954 27.3413ZM41.0397 11.7811C42.4021 11.3643 43.048 11.5761 43.1515 11.644C43.6668 11.9818 43.8517 12.2256 43.9158 12.3406C43.9597 12.4193 43.9834 12.4942 43.9631 12.6587C43.8982 13.1847 43.4889 13.9859 42.5121 15.4747C42.3525 15.718 42.1833 15.9719 42.0067 16.2368C40.3634 18.7022 38.0855 22.1199 37.0349 26.7665C35.3627 26.438 33.7153 26.2064 32.1218 26.0581C31.9733 20.5898 34.2393 16.6656 36.8702 14.2739C38.2895 12.9837 39.7898 12.1635 41.0397 11.7811ZM25.3714 25.9076C25.365 22.6651 24.5045 20.3641 23.3267 18.7563C21.9865 16.9269 20.119 15.8359 18.2243 15.326C16.2933 14.8064 14.4852 14.93 13.3696 15.3493C12.8076 15.5604 12.575 15.7864 12.5098 15.8779C12.5067 15.8823 12.5036 15.8824 12.5015 15.8825C12.5006 15.8825 12.4999 15.8826 12.4995 15.8829C12.4976 15.8844 12.4998 15.891 12.5107 15.9242L12.5159 15.9401C13.0829 17.6701 13.9901 18.0743 15.603 18.7929C15.9176 18.9331 16.259 19.0852 16.6299 19.2614C17.7299 19.784 19.0139 20.5413 19.9617 22.018C20.6895 23.1521 21.1279 24.5656 21.2855 26.3461C22.5355 26.133 23.9123 25.9839 25.3714 25.9076ZM44.9853 36.542C44.9793 36.2636 44.9679 35.9845 44.9506 35.7058C46.3943 36.225 47.116 36.7566 47.4315 37.1316C47.6133 37.3477 47.6324 37.4758 47.6361 37.5212C47.6408 37.5774 47.6344 37.6942 47.5303 37.8889C47.297 38.325 46.6994 38.8958 45.7746 39.3335C45.4646 39.4801 45.1473 39.5976 44.8338 39.6849C44.9559 38.6436 45.0078 37.5799 44.9853 36.542ZM18.4198 31.1293C19.8022 30.4486 22.6831 29.8137 26.5316 29.7074C30.3154 29.6029 34.8281 30.0159 39.3713 31.259C39.6 31.3216 40.0394 31.5979 40.4585 32.6371C40.8631 33.6406 41.106 35.0396 41.1404 36.6252C41.1743 38.194 41.0016 39.8321 40.6586 41.2633C40.3064 42.7329 39.8168 43.8086 39.3366 44.3971C39.2514 44.5015 38.9843 44.7296 38.3599 44.9881C37.761 45.2362 36.9702 45.4563 36.0103 45.6349C34.0922 45.9918 31.7104 46.1449 29.3055 46.1305C26.9072 46.1162 24.5608 45.936 22.7314 45.6558C21.8131 45.5151 21.0661 45.3554 20.525 45.1937C20.2543 45.1128 20.0684 45.0412 19.9534 44.9872C19.9376 44.9798 19.9244 44.9732 19.9135 44.9677C18.4266 43.4067 17.3782 40.2059 17.195 36.9207C17.1048 35.3032 17.2373 33.8345 17.545 32.7347C17.876 31.5517 18.2889 31.1938 18.4198 31.1293Z" fill="#F0EFE9"/>
</svg>
