<svg width="60" height="58" viewBox="0 0 60 58" fill="none" xmlns="http://www.w3.org/2000/svg">
<rect x="0.973877" width="58.0379" height="58" fill="#8E4A7C"/>
<path d="M23.7582 35.4129V35.3025C23.7585 33.8043 23.7586 32.5989 22.2197 32.5989C20.6619 32.5989 20.553 34.1099 20.553 35.6336C20.553 37.1572 20.6619 38.1165 22.2197 38.1165C23.7586 38.1165 23.7585 36.9111 23.7582 35.4129Z" fill="#F0EFE9"/>
<path d="M35.5869 35.4129V35.3025C35.5871 33.8043 35.5873 32.5989 34.0484 32.5989C32.4906 32.5989 32.3816 34.1099 32.3816 35.6336C32.3816 37.1573 32.4906 38.1165 34.0484 38.1165C35.5873 38.1165 35.5871 36.9111 35.5869 35.4129Z" fill="#F0EFE9"/>
<path fill-rule="evenodd" clip-rule="evenodd" d="M17.5071 27.3413C17.4418 25.5965 17.0925 24.6482 16.7361 24.0929C16.3555 23.4999 15.8271 23.13 14.9904 22.7325C14.7786 22.6319 14.5386 22.5299 14.2786 22.4194L14.2783 22.4192C12.574 21.6949 10.0097 20.6051 8.87279 17.1363C8.46243 15.8842 8.67643 14.6488 9.38818 13.6494C10.0453 12.7266 11.0334 12.1254 12.0276 11.7518C14.0245 11.0014 16.6713 10.9246 19.236 11.6148C21.8371 12.3148 24.5061 13.8439 26.4416 16.486C27.4441 17.8545 28.2194 19.48 28.6949 21.3739C29.5767 17.0709 31.7667 13.7284 34.2941 11.4309C36.0874 9.80065 38.0765 8.67187 39.9257 8.10613C41.6624 7.57478 43.7252 7.41567 45.273 8.4305C46.1125 8.98096 46.825 9.64103 47.2872 10.4701C47.7696 11.3355 47.901 12.2447 47.7918 13.1293C47.5977 14.7013 46.6091 16.2575 45.7401 17.5821C45.5764 17.8316 45.4084 18.0846 45.2376 18.342L45.2373 18.3425C43.5801 20.8391 41.6561 23.7379 40.7834 27.6755C42.4533 28.2926 43.4591 29.7664 44.0374 31.2007C44.071 31.2842 44.1037 31.3686 44.1354 31.4538C44.16 31.459 44.1846 31.4647 44.2092 31.4708C47.0886 32.1945 49.1858 33.2307 50.3868 34.6581C51.0157 35.4056 51.4031 36.2693 51.4806 37.2038C51.5572 38.1276 51.3197 38.9789 50.9339 39.7003C50.1874 41.0964 48.8214 42.1497 47.4321 42.8071C46.3862 43.302 45.181 43.6429 43.9643 43.7061C43.5638 44.8757 43.0282 45.969 42.3287 46.8262C41.6728 47.6299 40.7469 48.1648 39.844 48.5387C38.9156 48.9232 37.8447 49.2052 36.726 49.4133C34.4867 49.83 31.8432 49.989 29.2943 49.9738C26.7389 49.9586 24.2029 49.7676 22.1605 49.4548C21.143 49.299 20.2069 49.1067 19.4349 48.876C19.0491 48.7607 18.671 48.626 18.3292 48.4655C18.0099 48.3155 17.6064 48.0901 17.2656 47.7471C14.7684 45.234 13.574 40.8502 13.3668 37.1346C13.2604 35.2262 13.4011 33.3144 13.8529 31.6998C14.2814 30.1685 15.1142 28.4783 16.7316 27.6818C16.9722 27.5633 17.2311 27.4497 17.5071 27.3413ZM41.0515 11.7811C42.4138 11.3643 43.0597 11.5761 43.1633 11.644C43.6785 11.9818 43.8634 12.2256 43.9275 12.3406C43.9714 12.4193 43.9952 12.4942 43.9749 12.6587C43.9099 13.1847 43.5006 13.9859 42.5238 15.4747C42.3642 15.718 42.195 15.9719 42.0184 16.2368C40.3751 18.7022 38.0972 22.1199 37.0467 26.7665C35.3744 26.438 33.7271 26.2064 32.1335 26.0581C31.985 20.5898 34.251 16.6656 36.8819 14.2739C38.3013 12.9837 39.8015 12.1635 41.0515 11.7811ZM25.3832 25.9076C25.3767 22.6651 24.5162 20.3641 23.3384 18.7563C21.9982 16.9269 20.1307 15.8359 18.236 15.326C16.3051 14.8064 14.4969 14.93 13.3813 15.3493C12.8193 15.5604 12.5867 15.7864 12.5215 15.8779C12.5184 15.8823 12.5154 15.8824 12.5133 15.8825C12.5124 15.8825 12.5116 15.8826 12.5112 15.8829C12.5093 15.8844 12.5115 15.891 12.5224 15.9242L12.5276 15.9401C13.0946 17.6701 14.0019 18.0743 15.6147 18.7929C15.9293 18.9331 16.2707 19.0852 16.6417 19.2614C17.7416 19.784 19.0257 20.5413 19.9734 22.018C20.7012 23.1521 21.1396 24.5656 21.2973 26.3461C22.5472 26.133 23.924 25.9839 25.3832 25.9076ZM44.9971 36.542C44.991 36.2636 44.9796 35.9845 44.9624 35.7058C46.406 36.225 47.1277 36.7566 47.4432 37.1316C47.625 37.3477 47.6441 37.4758 47.6478 37.5212C47.6525 37.5774 47.6461 37.6942 47.542 37.8889C47.3088 38.325 46.7112 38.8958 45.7863 39.3335C45.4763 39.4801 45.1591 39.5976 44.8455 39.6849C44.9676 38.6436 45.0195 37.5799 44.9971 36.542ZM18.4315 31.1293C19.814 30.4486 22.6948 29.8137 26.5433 29.7074C30.3271 29.6029 34.8398 30.0159 39.383 31.259C39.6117 31.3216 40.0512 31.5979 40.4702 32.6371C40.8748 33.6406 41.1177 35.0396 41.1521 36.6252C41.186 38.194 41.0133 39.8321 40.6703 41.2633C40.3182 42.7329 39.8285 43.8086 39.3483 44.3971C39.2631 44.5015 38.996 44.7296 38.3716 44.9881C37.7727 45.2362 36.9819 45.4563 36.022 45.6349C34.1039 45.9918 31.7222 46.1449 29.3173 46.1305C26.9189 46.1162 24.5725 45.936 22.7432 45.6558C21.8248 45.5151 21.0778 45.3554 20.5368 45.1937C20.266 45.1128 20.0801 45.0412 19.9651 44.9872C19.9494 44.9798 19.9361 44.9732 19.9252 44.9677C18.4383 43.4067 17.3899 40.2059 17.2067 36.9207C17.1165 35.3032 17.249 33.8345 17.5567 32.7347C17.8877 31.5517 18.3006 31.1938 18.4315 31.1293Z" fill="#F0EFE9"/>
</svg>
