<svg width="59" height="58" viewBox="0 0 59 58" fill="none" xmlns="http://www.w3.org/2000/svg">
<rect width="58.0379" height="58" fill="#4A8E5C"/>
<path d="M22.7843 35.4129V35.3025C22.7846 33.8043 22.7848 32.5989 21.2458 32.5989C19.688 32.5989 19.5791 34.1099 19.5791 35.6336C19.5791 37.1572 19.688 38.1165 21.2458 38.1165C22.7848 38.1165 22.7846 36.9111 22.7843 35.4129Z" fill="#F0EFE9"/>
<path d="M34.613 35.4129V35.3025C34.6132 33.8043 34.6134 32.5989 33.0745 32.5989C31.5167 32.5989 31.4078 34.1099 31.4078 35.6336C31.4078 37.1573 31.5167 38.1165 33.0745 38.1165C34.6134 38.1165 34.6132 36.9111 34.613 35.4129Z" fill="#F0EFE9"/>
<path fill-rule="evenodd" clip-rule="evenodd" d="M16.5332 27.3413C16.4679 25.5965 16.1186 24.6482 15.7622 24.0929C15.3817 23.4999 14.8533 23.13 14.0166 22.7325C13.8047 22.6319 13.5648 22.5299 13.3047 22.4194L13.3044 22.4192C11.6001 21.6949 9.03578 20.6051 7.89891 17.1363C7.48855 15.8842 7.70256 14.6488 8.4143 13.6494C9.07146 12.7266 10.0595 12.1254 11.0538 11.7518C13.0506 11.0014 15.6974 10.9246 18.2622 11.6148C20.8632 12.3148 23.5322 13.8439 25.4677 16.486C26.4702 17.8545 27.2455 19.48 27.721 21.3739C28.6029 17.0709 30.7928 13.7284 33.3202 11.4309C35.1135 9.80065 37.1026 8.67187 38.9518 8.10613C40.6885 7.57478 42.7513 7.41567 44.2991 8.4305C45.1386 8.98096 45.8511 9.64103 46.3133 10.4701C46.7957 11.3355 46.9271 12.2447 46.8179 13.1293C46.6238 14.7013 45.6352 16.2575 44.7662 17.5821C44.6025 17.8316 44.4345 18.0846 44.2637 18.342L44.2634 18.3425C42.6062 20.8391 40.6822 23.7379 39.8096 27.6755C41.4794 28.2926 42.4852 29.7664 43.0635 31.2007C43.0972 31.2842 43.1298 31.3686 43.1615 31.4538C43.1861 31.459 43.2107 31.4647 43.2353 31.4708C46.1147 32.1945 48.2119 33.2307 49.4129 34.6581C50.0419 35.4056 50.4292 36.2693 50.5067 37.2038C50.5833 38.1276 50.3458 38.9789 49.96 39.7003C49.2135 41.0964 47.8475 42.1497 46.4582 42.8071C45.4123 43.302 44.2071 43.6429 42.9904 43.7061C42.5899 44.8757 42.0543 45.969 41.3548 46.8262C40.6989 47.6299 39.773 48.1648 38.8701 48.5387C37.9417 48.9232 36.8708 49.2052 35.7521 49.4133C33.5128 49.83 30.8693 49.989 28.3204 49.9738C25.765 49.9586 23.229 49.7676 21.1867 49.4548C20.1691 49.299 19.233 49.1067 18.461 48.876C18.0753 48.7607 17.6971 48.626 17.3553 48.4655C17.0361 48.3155 16.6325 48.0901 16.2917 47.7471C13.7945 45.234 12.6001 40.8502 12.3929 37.1346C12.2865 35.2262 12.4273 33.3144 12.879 31.6998C13.3075 30.1685 14.1403 28.4783 15.7577 27.6818C15.9983 27.5633 16.2572 27.4497 16.5332 27.3413ZM40.0776 11.7811C41.4399 11.3643 42.0859 11.5761 42.1894 11.644C42.7046 11.9818 42.8895 12.2256 42.9536 12.3406C42.9975 12.4193 43.0213 12.4942 43.001 12.6587C42.936 13.1847 42.5268 13.9859 41.55 15.4747C41.3904 15.718 41.2211 15.9719 41.0445 16.2368C39.4013 18.7022 37.1233 22.1199 36.0728 26.7665C34.4005 26.438 32.7532 26.2064 31.1596 26.0581C31.0111 20.5898 33.2772 16.6656 35.9081 14.2739C37.3274 12.9837 38.8277 12.1635 40.0776 11.7811ZM24.4093 25.9076C24.4028 22.6651 23.5423 20.3641 22.3645 18.7563C21.0243 16.9269 19.1568 15.8359 17.2621 15.326C15.3312 14.8064 13.523 14.93 12.4074 15.3493C11.8454 15.5604 11.6128 15.7864 11.5477 15.8779C11.5445 15.8823 11.5415 15.8824 11.5394 15.8825C11.5385 15.8825 11.5378 15.8826 11.5373 15.8829C11.5354 15.8844 11.5376 15.891 11.5485 15.9242L11.5538 15.9401C12.1208 17.6701 13.028 18.0743 14.6408 18.7929C14.9554 18.9331 15.2968 19.0852 15.6678 19.2614C16.7678 19.784 18.0518 20.5413 18.9995 22.018C19.7273 23.1521 20.1658 24.5656 20.3234 26.3461C21.5734 26.133 22.9501 25.9839 24.4093 25.9076ZM44.0232 36.542C44.0171 36.2636 44.0057 35.9845 43.9885 35.7058C45.4322 36.225 46.1538 36.7566 46.4694 37.1316C46.6512 37.3477 46.6702 37.4758 46.674 37.5212C46.6786 37.5774 46.6722 37.6942 46.5681 37.8889C46.3349 38.325 45.7373 38.8958 44.8124 39.3335C44.5024 39.4801 44.1852 39.5976 43.8717 39.6849C43.9937 38.6436 44.0457 37.5799 44.0232 36.542ZM17.4576 31.1293C18.8401 30.4486 21.7209 29.8137 25.5695 29.7074C29.3533 29.6029 33.8659 30.0159 38.4092 31.259C38.6378 31.3216 39.0773 31.5979 39.4963 32.6371C39.9009 33.6406 40.1439 35.0396 40.1782 36.6252C40.2122 38.194 40.0395 39.8321 39.6965 41.2633C39.3443 42.7329 38.8546 43.8086 38.3744 44.3971C38.2892 44.5015 38.0221 44.7296 37.3978 44.9881C36.7988 45.2362 36.008 45.4563 35.0481 45.6349C33.13 45.9918 30.7483 46.1449 28.3434 46.1305C25.945 46.1162 23.5986 45.936 21.7693 45.6558C20.851 45.5151 20.104 45.3554 19.5629 45.1937C19.2921 45.1128 19.1063 45.0412 18.9912 44.9872C18.9755 44.9798 18.9622 44.9732 18.9513 44.9677C17.4645 43.4067 16.4161 40.2059 16.2329 36.9207C16.1427 35.3032 16.2752 33.8345 16.5828 32.7347C16.9138 31.5517 17.3267 31.1938 17.4576 31.1293Z" fill="#F0EFE9"/>
</svg>
