<svg width="521" height="632" viewBox="0 0 521 632" fill="none" xmlns="http://www.w3.org/2000/svg">
<path d="M113.056 112.371C115.989 106.79 118.832 101.653 121 97.8705C127.569 89.5874 133.025 81.1411 137.131 73.3705M113.056 112.371C106.296 125.234 99.0579 140.454 98.5 146.871C97.8168 150.884 96.6786 157.19 95.5158 162.871M113.056 112.371C89.2039 102.537 42 76.5705 46 53.3705C49.5 45.8705 73.2366 42.1705 137.131 73.3705M137.131 73.3705C140.214 67.5384 142.536 62.0868 144 57.3705C154.8 22.5705 142.5 7.53722 135 4.37056C56.6 -11.6294 22.6667 116.371 14 184.371C13 190.704 10.7 210.171 9.5 237.371C9.4003 239.63 9.28841 241.97 9.16627 244.371M95.5158 162.871C94.4092 168.276 93.2802 173.115 92.5 174.871C90.5 179.371 84.5 192.871 82.5 201.871C82.0771 203.774 81.7213 208.337 81.4939 214.871M95.5158 162.871C93.6772 162.204 87 160.371 82.5 166.371M35 201.871C36 239.871 38 316.771 38 320.371C38 322.689 37.5853 345.727 37.1565 368.871M9.16627 244.371C7.81832 270.86 5.22256 304.7 4 319.371C4.5 355.704 5.5 433.971 5.5 456.371C5.5 478.771 5.5 498.704 5.5 505.871L3 606.371V623.871C10.2 633.071 19 625.037 22.5 619.871L27.5 433.371C41.9 404.171 59.8333 411.871 67 419.371C71.3333 484.204 80.1 614.571 80.5 617.371C80.9 620.171 85 620.204 87 619.871C92 618.537 102 613.971 102 606.371C95.0688 600.255 94.7869 459.822 90.8524 378.371M9.16627 244.371C5.44418 294.537 4.23077 399.371 7 401.371C14.2 406.571 29.6667 405.204 36.5 403.871C36.6027 398.463 36.7264 391.907 36.8583 384.871M36.8583 384.871C46.6405 381.037 71.1343 374.371 90.8524 378.371M36.8583 384.871C36.9551 379.708 37.0562 374.286 37.1565 368.871M90.8524 378.371C89.9619 359.935 88.8842 344.521 87.5 334.371C86.2625 325.295 85.2428 315.853 84.4117 306.371M90.8524 368.871C70.5705 361.271 46.6043 365.704 37.1565 368.871M81.4939 214.871L137.5 348.371C137.5 349.371 136.9 352.071 134.5 354.871C133.876 355.598 133.014 356.261 132 356.851M81.4939 214.871C80.8236 234.137 81.2709 270.537 84.4117 306.371M84.4117 306.371C94.2745 324.037 114.9 359.471 118.5 359.871C122.064 360.267 128.137 359.094 132 356.851M132 356.851C152.725 390.917 165.958 412.669 184.028 442.371M275.5 552.871L269.5 550.371M269.5 550.371L263.5 547.871L226.5 477.371L196.5 462.871C192.036 455.533 187.92 448.768 184.028 442.371M269.5 550.371V560.371L275.5 571.871M184.028 442.371L180.5 458.371L186.5 472.371M222.5 169.5C222.5 159 200.243 152.5 200.243 174C200.243 202 222.5 191.5 222.5 183M236 161V169.5M323.5 192C323.5 191.336 323.5 181.674 323.5 174.5M323.5 170.5C323.5 171.663 323.5 173.029 323.5 174.5M323.5 174.5C326.5 171.833 333.8 168 339 174V192M353.5 189.5L355 193L353.5 196.5M216 215V228.5M216 247.5V241.5M216 228.5C210.667 224.833 199.9 221 199.5 235C199 252.5 212.5 248 216 241.5M216 228.5V241.5M291.5 228C288 225.167 278 221 275.5 229C272.881 237.382 287 235.5 290 236.5C293 237.5 294.292 242.708 291.5 245.5C288 249 275.5 249.5 275.5 243.5M334.5 247V229M334.5 229V226M334.5 229C337.333 226 344.3 221.8 349.5 229M349.5 229V247M349.5 229C357.1 221.8 362.667 226 364.5 229V247M252.5 192V174M252.5 174V171M252.5 174C255.333 171 262.3 166.8 267.5 174M267.5 174V192M267.5 174C275.1 166.8 280.667 171 282.5 174V192M375 235C376 222.5 393 221 393 235H375ZM375 235C373.59 252.621 393 249.5 393 243M417 241.5C417 251 406 247.5 406 245V225.5M406 220.5V225.5M406 225.5H401.5M406 225.5H417M430 216.5V230.5M430 230.5V248M430 230.5C430 222.5 446.5 222.5 446.5 231.5V247.5M459 226V247.5M459 216V219M472 225V230M472 230V248.5M472 230C472 223.5 488.5 223.5 488.5 230V248.5M501 252C501 259 517.5 257.5 517.5 251.5V243.5M517.5 225.5V231M517.5 231C517.5 225.5 501 224 501 230.5V243.5C501 248.5 517.5 248.5 517.5 243.5M517.5 231V243.5M91 85C87.3599 85 83 91.5 91 93C98 94.3125 97 85 91 85ZM110 91.5C106.5 90.5 101.443 94.9771 109 98C111.5 99 118.396 93.8989 110 91.5ZM303.5 172C298 172 294 172 294 183C294 194 311.5 193 312 183C312.5 173 309 172 303.5 172ZM237.5 227C232 227 228 227 228 238C228 249 245.5 248 246 238C246.5 228 243 227 237.5 227ZM313 227C307.5 227 303.5 227 303.5 238C303.5 249 321 248 321.5 238C322 228 318.5 227 313 227Z" stroke="black" stroke-width="6"/>
</svg>
